<mxfile modified="2020-08-21T00:24:13.179Z" host="app.diagrams.net" agent="5.0 (Windows NT 6.1; Win64; x64) AppleWebKit/537.36 (KHTML, like Gecko) Chrome/73.0.3683.86 Safari/537.36" etag="lhvAG9lEJ4aooOQJ9MSq" version="13.6.2" type="github">
  <diagram id="R5pfA701NaSD8N2ByGOf" name="Page-1">
    <mxGraphModel dx="3359" dy="529" grid="1" gridSize="10" guides="1" tooltips="1" connect="1" arrows="1" fold="1" page="1" pageScale="1" pageWidth="1169" pageHeight="827" math="0" shadow="0">
      <root>
        <mxCell id="0" />
        <mxCell id="1" parent="0" />
        <mxCell id="119IcOjmTgw26iHcHYF6-54" value="&lt;span style=&quot;font-size: 29px&quot;&gt;&lt;b&gt;La Wineria&lt;/b&gt;&lt;/span&gt;" style="text;html=1;align=center;verticalAlign=middle;resizable=0;points=[];;autosize=1;fontColor=#FF0000;" parent="1" vertex="1">
          <mxGeometry x="-1250" y="50" width="160" height="30" as="geometry" />
        </mxCell>
        <mxCell id="119IcOjmTgw26iHcHYF6-61" style="edgeStyle=orthogonalEdgeStyle;rounded=0;orthogonalLoop=1;jettySize=auto;html=1;exitX=0;exitY=0.25;exitDx=0;exitDy=0;entryX=0.5;entryY=1;entryDx=0;entryDy=0;fontSize=20;strokeColor=none;endArrow=ERoneToMany;endFill=0;startArrow=ERmandOne;startFill=0;" parent="1" edge="1">
          <mxGeometry relative="1" as="geometry">
            <mxPoint x="-874.833333333333" y="496.16999999999996" as="targetPoint" />
            <mxPoint x="-670.5" y="390.5900000000001" as="sourcePoint" />
          </mxGeometry>
        </mxCell>
        <mxCell id="CLIR_dkmVU7LcoB8GXZn-27" value="" style="edgeStyle=entityRelationEdgeStyle;fontSize=12;html=1;endArrow=ERoneToMany;startArrow=ERmandOne;entryX=0;entryY=0.25;entryDx=0;entryDy=0;" parent="1" source="CLIR_dkmVU7LcoB8GXZn-26" target="CLIR_dkmVU7LcoB8GXZn-31" edge="1">
          <mxGeometry width="100" height="100" relative="1" as="geometry">
            <mxPoint x="-1820" y="536.08" as="sourcePoint" />
            <mxPoint x="-1720" y="436.08" as="targetPoint" />
          </mxGeometry>
        </mxCell>
        <mxCell id="CLIR_dkmVU7LcoB8GXZn-28" value="U a M" style="edgeLabel;html=1;align=center;verticalAlign=middle;resizable=0;points=[];" parent="CLIR_dkmVU7LcoB8GXZn-27" vertex="1" connectable="0">
          <mxGeometry x="-0.1104" y="-1" relative="1" as="geometry">
            <mxPoint as="offset" />
          </mxGeometry>
        </mxCell>
        <mxCell id="CLIR_dkmVU7LcoB8GXZn-34" value="" style="edgeStyle=entityRelationEdgeStyle;fontSize=12;html=1;endArrow=ERoneToMany;startArrow=ERmandOne;" parent="1" source="CLIR_dkmVU7LcoB8GXZn-33" target="CLIR_dkmVU7LcoB8GXZn-31" edge="1">
          <mxGeometry width="100" height="100" relative="1" as="geometry">
            <mxPoint x="-1740" y="476.08" as="sourcePoint" />
            <mxPoint x="-1640" y="376.08" as="targetPoint" />
          </mxGeometry>
        </mxCell>
        <mxCell id="CLIR_dkmVU7LcoB8GXZn-35" value="U a M" style="edgeLabel;html=1;align=center;verticalAlign=middle;resizable=0;points=[];fontColor=#000000;" parent="CLIR_dkmVU7LcoB8GXZn-34" vertex="1" connectable="0">
          <mxGeometry x="-0.051" relative="1" as="geometry">
            <mxPoint as="offset" />
          </mxGeometry>
        </mxCell>
        <mxCell id="CLIR_dkmVU7LcoB8GXZn-50" value="" style="edgeStyle=entityRelationEdgeStyle;fontSize=12;html=1;endArrow=ERoneToMany;startArrow=ERmandOne;" parent="1" source="CLIR_dkmVU7LcoB8GXZn-49" target="119IcOjmTgw26iHcHYF6-74" edge="1">
          <mxGeometry width="100" height="100" relative="1" as="geometry">
            <mxPoint x="-999.5" y="700" as="sourcePoint" />
            <mxPoint x="-899.5" y="600" as="targetPoint" />
          </mxGeometry>
        </mxCell>
        <mxCell id="CLIR_dkmVU7LcoB8GXZn-51" value="U a M" style="edgeLabel;html=1;align=center;verticalAlign=middle;resizable=0;points=[];fontColor=#000000;" parent="CLIR_dkmVU7LcoB8GXZn-50" vertex="1" connectable="0">
          <mxGeometry x="-0.2065" y="1" relative="1" as="geometry">
            <mxPoint as="offset" />
          </mxGeometry>
        </mxCell>
        <mxCell id="CLIR_dkmVU7LcoB8GXZn-52" value="" style="edgeStyle=entityRelationEdgeStyle;fontSize=12;html=1;endArrow=ERoneToMany;startArrow=ERmandOne;" parent="1" source="CLIR_dkmVU7LcoB8GXZn-47" target="119IcOjmTgw26iHcHYF6-74" edge="1">
          <mxGeometry width="100" height="100" relative="1" as="geometry">
            <mxPoint x="-999.5" y="700" as="sourcePoint" />
            <mxPoint x="-899.5" y="600" as="targetPoint" />
          </mxGeometry>
        </mxCell>
        <mxCell id="CLIR_dkmVU7LcoB8GXZn-53" value="U a M" style="edgeLabel;html=1;align=center;verticalAlign=middle;resizable=0;points=[];fontColor=#000000;" parent="CLIR_dkmVU7LcoB8GXZn-52" vertex="1" connectable="0">
          <mxGeometry x="-0.0073" y="2" relative="1" as="geometry">
            <mxPoint x="9.530000000000001" y="1.500000000000003" as="offset" />
          </mxGeometry>
        </mxCell>
        <mxCell id="XidrcmPHRUJYJWmRy7Ku-38" value="&lt;span style=&quot;font-size: 29px&quot;&gt;&lt;b&gt;Productos&lt;/b&gt;&lt;/span&gt;" style="text;html=1;align=center;verticalAlign=middle;resizable=0;points=[];;autosize=1;fontColor=#FF0000;" parent="1" vertex="1">
          <mxGeometry x="-600" y="180" width="160" height="30" as="geometry" />
        </mxCell>
        <mxCell id="CLIR_dkmVU7LcoB8GXZn-30" value="position" style="swimlane;childLayout=stackLayout;horizontal=1;startSize=30;horizontalStack=0;fontColor=#FFFFFF;rounded=1;fontSize=14;fontStyle=0;strokeWidth=2;resizeParent=0;resizeLast=1;shadow=0;dashed=0;align=center;glass=0;comic=0;fillColor=#0000FF;" parent="1" vertex="1">
          <mxGeometry x="-1810" y="380.00000000000006" width="260" height="246.08" as="geometry" />
        </mxCell>
        <mxCell id="CLIR_dkmVU7LcoB8GXZn-31" value="id (PK)&#xa;desc_posicion&#xa;cod_pais (FK country)&#xa;cod_empresa (FK company)&#xa;cod_ubicacion (FK location)&#xa;cod_region (FK location)&#xa;cod_sindicato (FK location)&#xa;cod_funcion (FK function)&#xa;cod_un (FK unit)&#xa;cod_departamento (FK department)&#xa;depende_de" style="align=center;strokeColor=none;fillColor=none;spacingLeft=4;fontSize=15;verticalAlign=top;resizable=0;rotatable=0;part=1;" parent="CLIR_dkmVU7LcoB8GXZn-30" vertex="1">
          <mxGeometry y="30" width="260" height="216.08" as="geometry" />
        </mxCell>
        <mxCell id="CLIR_dkmVU7LcoB8GXZn-25" value="unit" style="swimlane;childLayout=stackLayout;horizontal=1;startSize=30;horizontalStack=0;fillColor=#008cff;fontColor=#FFFFFF;rounded=1;fontSize=14;fontStyle=0;strokeWidth=2;resizeParent=0;resizeLast=1;shadow=0;dashed=0;align=center;glass=0;comic=0;" parent="1" vertex="1">
          <mxGeometry x="-2040" y="380.00000000000006" width="160" height="97.83" as="geometry" />
        </mxCell>
        <mxCell id="CLIR_dkmVU7LcoB8GXZn-26" value="id(pk)&#xa;cod_un (FK)&#xa;desc_un" style="align=center;strokeColor=none;fillColor=none;spacingLeft=4;fontSize=15;verticalAlign=top;resizable=0;rotatable=0;part=1;" parent="CLIR_dkmVU7LcoB8GXZn-25" vertex="1">
          <mxGeometry y="30" width="160" height="67.83" as="geometry" />
        </mxCell>
        <mxCell id="CLIR_dkmVU7LcoB8GXZn-32" value="function" style="swimlane;childLayout=stackLayout;horizontal=1;startSize=30;horizontalStack=0;fillColor=#008cff;fontColor=#FFFFFF;rounded=1;fontSize=14;fontStyle=0;strokeWidth=2;resizeParent=0;resizeLast=1;shadow=0;dashed=0;align=center;glass=0;comic=0;" parent="1" vertex="1">
          <mxGeometry x="-2040" y="509.99999999999994" width="160" height="97.83" as="geometry">
            <mxRectangle x="-1610" y="623.92" width="80" height="30" as="alternateBounds" />
          </mxGeometry>
        </mxCell>
        <mxCell id="CLIR_dkmVU7LcoB8GXZn-33" value="id(pk)&#xa;cod_funcion (FK)&#xa;desc_funcion" style="align=center;strokeColor=none;fillColor=none;spacingLeft=4;fontSize=15;verticalAlign=top;resizable=0;rotatable=0;part=1;" parent="CLIR_dkmVU7LcoB8GXZn-32" vertex="1">
          <mxGeometry y="30" width="160" height="67.83" as="geometry" />
        </mxCell>
        <mxCell id="AehaRHMQvMuTLqHuPT1a-1" value="&lt;span style=&quot;font-size: 29px&quot;&gt;&lt;b&gt;Usuaurios&lt;/b&gt;&lt;/span&gt;" style="text;html=1;align=center;verticalAlign=middle;resizable=0;points=[];;autosize=1;fontColor=#FF0000;" vertex="1" parent="1">
          <mxGeometry x="-1870" y="180" width="160" height="30" as="geometry" />
        </mxCell>
        <mxCell id="CLIR_dkmVU7LcoB8GXZn-46" value="regions" style="swimlane;childLayout=stackLayout;horizontal=1;startSize=30;horizontalStack=0;fillColor=#008cff;fontColor=#FFFFFF;rounded=1;fontSize=14;fontStyle=0;strokeWidth=2;resizeParent=0;resizeLast=1;shadow=0;dashed=0;align=center;glass=0;comic=0;" parent="1" vertex="1">
          <mxGeometry x="-369.5" y="550.01" width="160" height="97.83" as="geometry" />
        </mxCell>
        <mxCell id="CLIR_dkmVU7LcoB8GXZn-47" value="id(pk)&#xa;name" style="align=center;strokeColor=none;fillColor=none;spacingLeft=4;fontSize=15;verticalAlign=top;resizable=0;rotatable=0;part=1;" parent="CLIR_dkmVU7LcoB8GXZn-46" vertex="1">
          <mxGeometry y="30" width="160" height="67.83" as="geometry" />
        </mxCell>
        <mxCell id="CLIR_dkmVU7LcoB8GXZn-48" value="types" style="swimlane;childLayout=stackLayout;horizontal=1;startSize=30;horizontalStack=0;fillColor=#008cff;fontColor=#FFFFFF;rounded=1;fontSize=14;fontStyle=0;strokeWidth=2;resizeParent=0;resizeLast=1;shadow=0;dashed=0;align=center;glass=0;comic=0;" parent="1" vertex="1">
          <mxGeometry x="-369.5" y="440" width="160" height="97.83" as="geometry" />
        </mxCell>
        <mxCell id="CLIR_dkmVU7LcoB8GXZn-49" value="id(pk)&#xa;name" style="align=center;strokeColor=none;fillColor=none;spacingLeft=4;fontSize=15;verticalAlign=top;resizable=0;rotatable=0;part=1;" parent="CLIR_dkmVU7LcoB8GXZn-48" vertex="1">
          <mxGeometry y="30" width="160" height="67.83" as="geometry" />
        </mxCell>
        <mxCell id="119IcOjmTgw26iHcHYF6-73" value="products" style="swimlane;childLayout=stackLayout;horizontal=1;startSize=30;horizontalStack=0;fontColor=#FFFFFF;rounded=1;fontSize=14;fontStyle=0;strokeWidth=2;resizeParent=0;resizeLast=1;shadow=0;dashed=0;align=center;glass=0;comic=0;fillColor=#0000FF;" parent="1" vertex="1">
          <mxGeometry x="-920" y="342.17" width="229.5" height="277.83" as="geometry" />
        </mxCell>
        <mxCell id="119IcOjmTgw26iHcHYF6-74" value="id (PK)&#xa;name&#xa;year&#xa;bodega&#xa;type_id (FK)&#xa;region_id (FK)&#xa;price&#xa;discount&#xa;alcohol&#xa;description&#xa;image&#xa;stock" style="align=center;strokeColor=none;fillColor=none;spacingLeft=4;fontSize=15;verticalAlign=top;resizable=0;rotatable=0;part=1;" parent="119IcOjmTgw26iHcHYF6-73" vertex="1">
          <mxGeometry y="30" width="229.5" height="247.82999999999998" as="geometry" />
        </mxCell>
      </root>
    </mxGraphModel>
  </diagram>
</mxfile>
